<?xml version="1.0" standalone="no"?>
<!DOCTYPE svg PUBLIC "-//W3C//DTD SVG 20010904//EN"
 "http://www.w3.org/TR/2001/REC-SVG-20010904/DTD/svg10.dtd">
<svg version="1.0" xmlns="http://www.w3.org/2000/svg"
 width="600.000000pt" height="600.000000pt" viewBox="0 0 600.000000 600.000000"
 preserveAspectRatio="xMidYMid meet">
<metadata>
Created by potrace 1.14, written by Peter Selinger 2001-2017
</metadata>
<g transform="translate(0.000000,600.000000) scale(0.100000,-0.100000)"
fill="#000000" stroke="none">
<path d="M2787 5994 c-1 -1 -40 -5 -87 -9 -46 -3 -87 -8 -90 -10 -3 -2 -32 -6
-65 -9 -33 -4 -67 -9 -75 -11 -8 -2 -28 -7 -45 -10 -16 -3 -41 -8 -55 -11
-276 -53 -648 -201 -915 -362 -250 -151 -528 -384 -720 -603 -327 -372 -581
-890 -675 -1374 -6 -27 -12 -61 -15 -75 -7 -34 -20 -133 -32 -240 -10 -84 -10
-473 0 -570 24 -231 106 -595 166 -735 5 -11 19 -47 32 -80 37 -98 133 -296
194 -401 231 -395 566 -749 945 -999 286 -188 620 -334 940 -409 259 -61 397
-78 670 -80 204 -1 360 6 426 18 10 2 42 7 69 10 28 4 57 9 65 11 8 2 33 6 55
10 132 19 420 108 610 188 390 165 799 464 1083 792 303 350 548 825 647 1255
51 220 80 435 80 589 l0 84 -690 1 -690 1 -2 810 c-1 446 -2 817 -2 825 -1 13
-91 15 -753 13 -414 -1 -785 -2 -824 -3 l-71 0 1 -822 1 -823 820 -1 820 -1
-1 -74 c-3 -129 -30 -271 -80 -419 -31 -88 -143 -320 -155 -320 -5 0 -9 -5 -9
-11 0 -15 -60 -98 -129 -179 -275 -322 -637 -513 -1066 -565 -57 -7 -287 -7
-325 -1 -14 3 -43 7 -65 11 -344 50 -652 200 -895 437 -262 254 -423 571 -476
937 -4 25 -8 55 -11 66 -5 26 -4 268 2 317 20 185 75 380 152 538 136 279 364
529 624 682 67 40 222 118 233 118 3 0 15 4 28 9 13 5 28 10 33 11 6 1 33 11
60 22 28 11 51 19 53 18 1 -1 35 6 75 15 81 18 109 22 217 31 41 3 80 7 85 8
7 2 10 241 9 692 l-1 689 -87 0 c-48 0 -88 0 -89 -1z"/>
</g>
</svg>
